<svg xmlns="http://www.w3.org/2000/svg" viewBox="0 0 655.99 235.34"><defs><style>.cls-1{fill:#2ebba4;}</style></defs><g id="Layer_2" data-name="Layer 2"><g id="Layer_1-2" data-name="Layer 1"><path class="cls-1" d="M52.75,224.25V52.73H151l0-11.09H41.65v193.7H456.7V224.25ZM197.94,41.64V52.73h447V224.25H504.13v11.09H656V41.64Z"/><path class="cls-1" d="M137.59,154.27c-.53-15.63-11-21.8-29.53-25.75-8.23-1.72-13.39-3.43-13.39-6.52,0-1.88,3.78-3.77,9.44-3.77a23.42,23.42,0,0,1,4.63.33c8.24,1.56,12.89,4.63,14.94,5.49a2.48,2.48,0,0,0,1.21.18,1.6,1.6,0,0,0,1.54-.86l8.75-16.3a1.83,1.83,0,0,0-.52-2.4c-2.74-2.24-14.75-9.45-29.69-9.45-19.22-.16-36.21,8.93-35.53,27.29C70,135,78.54,142.94,94,147.39c10.3,3.1,18.36,4.65,18.36,8.25,0,2.06-4.12,3.6-9.61,3.6-7.89,0-14.94-2.92-22-6.52a2.49,2.49,0,0,0-1-.35,1.67,1.67,0,0,0-1.56,1l-8.4,17.16A1.7,1.7,0,0,0,70.3,173c3.1,2.4,17.34,9.1,34,9.1C124.19,182.24,138.1,171.61,137.59,154.27Z"/><path class="cls-1" d="M205.56,176.61c-2.42,1.88-9.63,5.47-18.38,5.47-16.82,0-25.39-11.61-25.22-27.63V120.86h-9.45a1.59,1.59,0,0,1-1.72-1.53V99.2a1.62,1.62,0,0,1,1.72-1.7H162l.13-44.77,0-9.39c0-1,.51-1.7,1.55-1.7h21.46a1.62,1.62,0,0,1,1.72,1.7V97.5h14.41A1.62,1.62,0,0,1,203,99.2v20.13a1.59,1.59,0,0,1-1.72,1.53H186.85l-.18,17.73c.18,13.81.34,17.9,5.49,17.9,2.07,0,5-1.71,6-2a1.51,1.51,0,0,1,.86-.18,1.64,1.64,0,0,1,1.56.86l5.65,18.75C206.58,175.07,206.4,176.28,205.56,176.61Z"/><path class="cls-1" d="M303.89,178.8V98.66a1.58,1.58,0,0,0-1.54-1.72H284.16c-1,0-1.56.68-1.89,1.72l-2.92,7c-5.32-6.51-12.87-10.12-22.48-10.12C231.81,95.74,215,113.07,215,139c0,25.74,16.82,43.77,41.88,43.42,9.61,0,17.16-3.77,22.48-10.29l2.74,6.68c.35,1,.86,1.72,1.89,1.72h18.19C303.38,180.52,304.07,179.66,303.89,178.8Zm-45.65-21.45c-10.64,0-18.2-7.54-18.2-18.36,0-11,7.22-18.36,18.2-18.36S276.78,128,276.78,139C276.78,150.14,269.39,157.35,258.24,157.35Z"/><path class="cls-1" d="M419.58,94.88c-12.36,0-20.43,5.49-25.24,14.93-5-9.26-13.38-14.93-23.86-14.93-9.61,0-16.82,3.44-21.8,9.79l-1.53-6a2.13,2.13,0,0,0-2.24-1.72H327.06a1.62,1.62,0,0,0-1.71,1.72V178.8a1.62,1.62,0,0,0,1.71,1.72h21.81a1.53,1.53,0,0,0,1.7-1.72V139.34c.51-14.43,5.67-18.89,12-19.06,7.89-.16,11.67,6.52,11.67,17.85v40.51a1.77,1.77,0,0,0,1.72,1.88h21.8a1.68,1.68,0,0,0,1.72-1.88V142.08c0-16.47,5.31-21.63,12.17-21.8,7.91-.16,11.51,6.52,11.51,17.85v40.51a1.79,1.79,0,0,0,1.89,1.88h21.62a1.68,1.68,0,0,0,1.72-1.88V132.29C448.41,109.81,436.56,94.88,419.58,94.88Z"/><path class="cls-1" d="M512.93,95.06c-9.77,0-17.33,3.46-22.64,9.79l-2.93-6.48a2.27,2.27,0,0,0-2.4-1.58H469.68c-1.19,0-1.88.47-1.88,1.58V233.6a1.6,1.6,0,0,0,1.71,1.74h21.81a1.56,1.56,0,0,0,1.71-1.58V168.54c5.15,4.44,11.85,7,19.9,7,25.41,0,42.23-16.28,42.23-40.14C555.16,111.34,538.34,95.06,512.93,95.06Zm-1.19,62.29c-11,0-18.37-7.54-18.37-18.71,0-11,7.39-18.36,18.37-18.36s18.2,7.38,18.2,18.54S522.73,157.35,511.74,157.35Z"/><path class="cls-1" d="M626.9,97.29a45.24,45.24,0,0,0-12.36-2.07,31.42,31.42,0,0,0-20.77,8.24l-2-4.63a2.45,2.45,0,0,0-2.4-1.89H574a1.76,1.76,0,0,0-1.72,1.89v79.81a1.72,1.72,0,0,0,1.9,1.88H596c1.21,0,1.72-.68,1.72-1.88V128.35a14,14,0,0,1,11.85-7.55,32.54,32.54,0,0,1,10.63,2.39,1.83,1.83,0,0,0,.86.18,1.69,1.69,0,0,0,1.72-1.2l5.33-22.65A1.69,1.69,0,0,0,626.9,97.29Z"/><path class="cls-1" d="M630.42,2.41l21.21,23.34a2.87,2.87,0,0,1-2.13,4.8H35a4.4,4.4,0,0,0-4.4,4.4V226.7a2.87,2.87,0,0,1-4.8,2.13L2.8,208A8.51,8.51,0,0,1,0,201.65V7.44A7.44,7.44,0,0,1,7.44,0H625A7.37,7.37,0,0,1,630.42,2.41Z"/></g></g></svg>